<svg xmlns="http://www.w3.org/2000/svg" viewBox="0 0 309.63 73.98" style="max-width:400px;"><defs><style>.cls-1,.cls-3{fill:#002576;}.cls-1,.cls-2{stroke:rgb(205, 217, 229);stroke-miterlimit:10;stroke-width:4px;}.cls-2,.cls-4{fill:#21b0ff;}.cls-5{fill:#f6e200;}</style></defs><g><g><path class="cls-1" d="M112.94,38.94a12.57,12.57,0,0,0-5.3-3.14,10.39,10.39,0,0,0,4-3,7.86,7.86,0,0,0,1.58-5.12v-.11a8.29,8.29,0,0,0-.63-3.33,8,8,0,0,0-1.71-2.55,10.38,10.38,0,0,0-4-2.44,18.28,18.28,0,0,0-5.83-.83H85.24a1.75,1.75,0,0,0-1.74,1.74V53.09a1.74,1.74,0,0,0,1.74,1.74h15.87q6.56,0,10.17-2.65a8.62,8.62,0,0,0,3.62-7.38v-.11a8,8,0,0,0-2-5.75m-18.45-6a1.16,1.16,0,0,1-1.16-1.16h0V27.7a1.16,1.16,0,0,1,1.16-1.16h4.23a6,6,0,0,1,3.43.81,2.65,2.65,0,0,1,1.15,2.31v.1a2.66,2.66,0,0,1-1.22,2.4,6.58,6.58,0,0,1-3.56.78Zm0,13.78a1.16,1.16,0,0,1-1.16-1.16h0V41.17A1.16,1.16,0,0,1,94.44,40h5.43a6.29,6.29,0,0,1,3.74.89,2.8,2.8,0,0,1,1.2,2.39v.1a2.8,2.8,0,0,1-1.25,2.47,6.25,6.25,0,0,1-3.58.86Z"/><path class="cls-1" d="M131.58,20.16a1.75,1.75,0,0,1,1.74-1.74h6.61a1.75,1.75,0,0,1,1.74,1.74v24.1A1.74,1.74,0,0,0,143.41,46h17.41a1.75,1.75,0,0,1,1.74,1.74V53.1a1.74,1.74,0,0,1-1.74,1.74h-27.5a1.74,1.74,0,0,1-1.74-1.74h0Z"/><path class="cls-1" d="M260.21,46.34l-4.76-3.4a2,2,0,0,0-2.53.25l-.58.54a11.16,11.16,0,0,1-1.82,1.4,7.57,7.57,0,0,1-2.13.91,9.68,9.68,0,0,1-2.57.32,7.92,7.92,0,0,1-3.52-.76,8.21,8.21,0,0,1-2.72-2.06,9.06,9.06,0,0,1-1.8-3.09,11.08,11.08,0,0,1-.65-3.82v-.1a10.65,10.65,0,0,1,.65-3.75,9.41,9.41,0,0,1,1.8-3.07,8.42,8.42,0,0,1,2.72-2.05,8.2,8.2,0,0,1,3.52-.76,8.54,8.54,0,0,1,4.52,1.15,12.06,12.06,0,0,1,2.25,1.84,1.93,1.93,0,0,0,2.56.21L260,26.35a1.69,1.69,0,0,0,.32-2.38l0,0a17.35,17.35,0,0,0-5.07-4.12A17.13,17.13,0,0,0,251,18.25a21.84,21.84,0,0,0-5.1-.55,19.74,19.74,0,0,0-7.67,1.46,18.08,18.08,0,0,0-6.06,4,18.83,18.83,0,0,0-4,6,19.22,19.22,0,0,0-1.45,7.41v.11a18.92,18.92,0,0,0,5.48,13.49,18.15,18.15,0,0,0,6,3.93,19.19,19.19,0,0,0,7.33,1.4,22.16,22.16,0,0,0,5.44-.62,18.23,18.23,0,0,0,4.37-1.72,16.37,16.37,0,0,0,3.48-2.6,24.56,24.56,0,0,0,1.76-1.92,1.63,1.63,0,0,0-.25-2.29l-.09-.07"/><path class="cls-1" d="M293.47,55.45a26.2,26.2,0,0,1-8.94-1.51,23.18,23.18,0,0,1-4.4-2.4l-1.73-1.13a1.65,1.65,0,0,1-.32-2.31l0-.05,3.26-4a1.58,1.58,0,0,1,2-.63l.44.32a17,17,0,0,0,10,3.34,5.68,5.68,0,0,0,3-.65,2,2,0,0,0,1-1.84,4.73,4.73,0,0,0-.08-.82l-.17-.29a2.48,2.48,0,0,0-.93-.86,9.06,9.06,0,0,0-1.8-.8,29.53,29.53,0,0,0-2.93-.81c-1.87-.45-3.61-.95-5.2-1.48a15.56,15.56,0,0,1-4.18-2.08,9.21,9.21,0,0,1-2.81-3.17,9.78,9.78,0,0,1-1-4.69c0-.06.07-.88.16-1.84a10.38,10.38,0,0,1,.77-2.94,10.17,10.17,0,0,1,2.7-3.69,12.43,12.43,0,0,1,4.28-2.41,17.19,17.19,0,0,1,5.65-.86,24.41,24.41,0,0,1,8,1.23,25,25,0,0,1,5,2.67,1.73,1.73,0,0,1,.42,2.39l-2.92,4.31a1.53,1.53,0,0,1-2,.65l-.55-.33a18.79,18.79,0,0,0-3.29-1.58,14.5,14.5,0,0,0-4.88-.91,4.28,4.28,0,0,0-2.63.67,2,2,0,0,0-.88,1.66,4.6,4.6,0,0,0,.09.89l.18.31a2.67,2.67,0,0,0,1,.86,11.11,11.11,0,0,0,1.85.77,30.34,30.34,0,0,0,3,.81A42.22,42.22,0,0,1,300,33.78,15.84,15.84,0,0,1,304.13,36a8.79,8.79,0,0,1,2.6,3.14,9.94,9.94,0,0,1,.9,4.39s-.07.88-.16,1.83a11.57,11.57,0,0,1-.87,3.26,10.6,10.6,0,0,1-2.87,3.7,12.56,12.56,0,0,1-4.46,2.34,19.3,19.3,0,0,1-5.8.8"/><path class="cls-1" d="M193.94,17a20,20,0,1,0,20,20,20,20,0,0,0-20-20m9.25,23.69a3.15,3.15,0,0,1-1.42,2.47l-6.4,3.69a3.18,3.18,0,0,1-2.85,0l-6.39-3.69a3.14,3.14,0,0,1-1.43-2.47V33.31a3.18,3.18,0,0,1,1.43-2.47l6.39-3.69a3.18,3.18,0,0,1,2.85,0l6.4,3.69a3.17,3.17,0,0,1,1.42,2.47Z"/><path class="cls-2" d="M62,17.34,34.67,2.42a4,4,0,0,0-3.57,0L3.78,17.34A3.93,3.93,0,0,0,2,20.42c0-1.13.8-1.59,1.78-1L31.1,35.17a4,4,0,0,1,1.79,3.09V70.55c0,1.13-.81,1.59-1.79,1a3.94,3.94,0,0,0,3.57,0L62,55.8a4,4,0,0,0,1.79-3.09V20.43A4,4,0,0,0,62,17.34"/><path class="cls-1" d="M32.89,70.55V38.26a4,4,0,0,0-1.79-3.09L3.78,19.39c-1-.56-1.78-.1-1.78,1V52.71A4,4,0,0,0,3.78,55.8L31.1,71.57c1,.57,1.79.11,1.79-1"/></g><g><path class="cls-3" d="M112.94,38.94a12.57,12.57,0,0,0-5.3-3.14,10.39,10.39,0,0,0,4-3,7.86,7.86,0,0,0,1.58-5.12v-.11a8.29,8.29,0,0,0-.63-3.33,8,8,0,0,0-1.71-2.55,10.38,10.38,0,0,0-4-2.44,18.28,18.28,0,0,0-5.83-.83H85.24a1.75,1.75,0,0,0-1.74,1.74V53.09a1.74,1.74,0,0,0,1.74,1.74h15.87q6.56,0,10.17-2.65a8.62,8.62,0,0,0,3.62-7.38v-.11a8,8,0,0,0-2-5.75m-18.45-6a1.16,1.16,0,0,1-1.16-1.16h0V27.7a1.16,1.16,0,0,1,1.16-1.16h4.23a6,6,0,0,1,3.43.81,2.65,2.65,0,0,1,1.15,2.31v.1a2.66,2.66,0,0,1-1.22,2.4,6.58,6.58,0,0,1-3.56.78Zm0,13.78a1.16,1.16,0,0,1-1.16-1.16h0V41.17A1.16,1.16,0,0,1,94.44,40h5.43a6.29,6.29,0,0,1,3.74.89,2.8,2.8,0,0,1,1.2,2.39v.1a2.8,2.8,0,0,1-1.25,2.47,6.25,6.25,0,0,1-3.58.86Z"/><path class="cls-3" d="M131.58,20.16a1.75,1.75,0,0,1,1.74-1.74h6.61a1.75,1.75,0,0,1,1.74,1.74v24.1A1.74,1.74,0,0,0,143.41,46h17.41a1.75,1.75,0,0,1,1.74,1.74V53.1a1.74,1.74,0,0,1-1.74,1.74h-27.5a1.74,1.74,0,0,1-1.74-1.74h0Z"/><path class="cls-3" d="M260.21,46.34l-4.76-3.4a2,2,0,0,0-2.53.25l-.58.54a11.16,11.16,0,0,1-1.82,1.4,7.57,7.57,0,0,1-2.13.91,9.68,9.68,0,0,1-2.57.32,7.92,7.92,0,0,1-3.52-.76,8.21,8.21,0,0,1-2.72-2.06,9.06,9.06,0,0,1-1.8-3.09,11.08,11.08,0,0,1-.65-3.82v-.1a10.65,10.65,0,0,1,.65-3.75,9.41,9.41,0,0,1,1.8-3.07,8.42,8.42,0,0,1,2.72-2.05,8.2,8.2,0,0,1,3.52-.76,8.54,8.54,0,0,1,4.52,1.15,12.06,12.06,0,0,1,2.25,1.84,1.93,1.93,0,0,0,2.56.21L260,26.35a1.69,1.69,0,0,0,.32-2.38l0,0a17.35,17.35,0,0,0-5.07-4.12A17.13,17.13,0,0,0,251,18.25a21.84,21.84,0,0,0-5.1-.55,19.74,19.74,0,0,0-7.67,1.46,18.08,18.08,0,0,0-6.06,4,18.83,18.83,0,0,0-4,6,19.22,19.22,0,0,0-1.45,7.41v.11a18.92,18.92,0,0,0,5.48,13.49,18.15,18.15,0,0,0,6,3.93,19.19,19.19,0,0,0,7.33,1.4,22.16,22.16,0,0,0,5.44-.62,18.23,18.23,0,0,0,4.37-1.72,16.37,16.37,0,0,0,3.48-2.6,24.56,24.56,0,0,0,1.76-1.92,1.63,1.63,0,0,0-.25-2.29l-.09-.07"/><path class="cls-3" d="M293.47,55.45a26.2,26.2,0,0,1-8.94-1.51,23.18,23.18,0,0,1-4.4-2.4l-1.73-1.13a1.65,1.65,0,0,1-.32-2.31l0-.05,3.26-4a1.58,1.58,0,0,1,2-.63l.44.32a17,17,0,0,0,10,3.34,5.68,5.68,0,0,0,3-.65,2,2,0,0,0,1-1.84,4.73,4.73,0,0,0-.08-.82l-.17-.29a2.48,2.48,0,0,0-.93-.86,9.06,9.06,0,0,0-1.8-.8,29.53,29.53,0,0,0-2.93-.81c-1.87-.45-3.61-.95-5.2-1.48a15.56,15.56,0,0,1-4.18-2.08,9.21,9.21,0,0,1-2.81-3.17,9.78,9.78,0,0,1-1-4.69c0-.06.07-.88.16-1.84a10.38,10.38,0,0,1,.77-2.94,10.17,10.17,0,0,1,2.7-3.69,12.43,12.43,0,0,1,4.28-2.41,17.19,17.19,0,0,1,5.65-.86,24.41,24.41,0,0,1,8,1.23,25,25,0,0,1,5,2.67,1.73,1.73,0,0,1,.42,2.39l-2.92,4.31a1.53,1.53,0,0,1-2,.65l-.55-.33a18.79,18.79,0,0,0-3.29-1.58,14.5,14.5,0,0,0-4.88-.91,4.28,4.28,0,0,0-2.63.67,2,2,0,0,0-.88,1.66,4.6,4.6,0,0,0,.09.89l.18.31a2.67,2.67,0,0,0,1,.86,11.11,11.11,0,0,0,1.85.77,30.34,30.34,0,0,0,3,.81A42.22,42.22,0,0,1,300,33.78,15.84,15.84,0,0,1,304.13,36a8.79,8.79,0,0,1,2.6,3.14,9.94,9.94,0,0,1,.9,4.39s-.07.88-.16,1.83a11.57,11.57,0,0,1-.87,3.26,10.6,10.6,0,0,1-2.87,3.7,12.56,12.56,0,0,1-4.46,2.34,19.3,19.3,0,0,1-5.8.8"/><path class="cls-3" d="M193.94,17a20,20,0,1,0,20,20,20,20,0,0,0-20-20m9.25,23.69a3.15,3.15,0,0,1-1.42,2.47l-6.4,3.69a3.18,3.18,0,0,1-2.85,0l-6.39-3.69a3.14,3.14,0,0,1-1.43-2.47V33.31a3.18,3.18,0,0,1,1.43-2.47l6.39-3.69a3.18,3.18,0,0,1,2.85,0l6.4,3.69a3.17,3.17,0,0,1,1.42,2.47Z"/><path class="cls-4" d="M62,17.34,34.67,2.42a4,4,0,0,0-3.57,0L3.78,17.34A3.93,3.93,0,0,0,2,20.42c0-1.13.8-1.59,1.78-1L31.1,35.17a4,4,0,0,1,1.79,3.09V70.55c0,1.13-.81,1.59-1.79,1a3.94,3.94,0,0,0,3.57,0L62,55.8a4,4,0,0,0,1.79-3.09V20.43A4,4,0,0,0,62,17.34"/><path class="cls-3" d="M32.89,70.55V38.26a4,4,0,0,0-1.79-3.09L3.78,19.39c-1-.56-1.78-.1-1.78,1V52.71A4,4,0,0,0,3.78,55.8L31.1,71.57c1,.57,1.79.11,1.79-1"/><path class="cls-3" d="M18.71,19.35c-3.47,0-6.28-1.64-6.28-3.66v3.14c0,5.65,12.57,5.83,12.57,0V15.69c0,2-2.81,3.66-6.29,3.66"/><path class="cls-3" d="M48.61,19.35c-3.47,0-6.29-1.64-6.29-3.66v3.14c0,5.65,12.58,5.84,12.58,0V15.69c0,2-2.82,3.66-6.29,3.66"/><path class="cls-3" d="M33.66,11.2c-3.47,0-6.29-1.64-6.29-3.67v3.15c0,5.65,12.58,5.83,12.58,0V7.53c0,2-2.82,3.67-6.29,3.67"/><path class="cls-3" d="M33.66,27.81c-3.47,0-6.29-1.64-6.29-3.66V27c0,5.65,12.58,5.84,12.58,0V24.15c0,2-2.82,3.66-6.29,3.66"/><path class="cls-3" d="M48.84,35.81c-6.6,4-12,13.93-12,22.19a15.81,15.81,0,0,0,1,5.23,1.11,1.11,0,0,0,1.48.53,1.2,1.2,0,0,0,.21-.13L58.05,52.48A4.65,4.65,0,0,0,59.74,50a31.05,31.05,0,0,0,1.06-6.5c0-8.26-5.36-11.72-12-7.72m-.92,4a2.24,2.24,0,0,1,.92-1.71c.51-.31.92,0,.92.59V41a2.18,2.18,0,0,1-.92,1.71c-.5.31-.92,0-.92-.59Zm-5.79,19-1.75,1.77c-.48.49-1,.47-1.16,0a2.07,2.07,0,0,1,.59-1.81L41.52,57c.48-.49,1-.48,1.16,0a2.07,2.07,0,0,1-.59,1.81M42.72,52a1.92,1.92,0,0,1-1.16,1.45l-1.75.34c-.48.1-.75-.39-.59-1.09a1.9,1.9,0,0,1,1.16-1.44l1.75-.35c.48-.09.75.39.59,1.09m2.34-5.44c-.41.62-1,.86-1.29.53l-1.08-1.21a1.59,1.59,0,0,1,.21-1.73c.41-.62,1-.86,1.28-.53l1.08,1.21a1.6,1.6,0,0,1-.2,1.73M52.63,42c-.41-.12-.51-.79-.21-1.48L53.5,38c.3-.69.88-1.16,1.29-1s.5.79.2,1.48L53.91,41c-.3.69-.87,1.15-1.28,1m5.83,6.89a1.86,1.86,0,0,1-1.16,1.44l-1.75.35c-.48.1-.74-.39-.59-1.09a1.9,1.9,0,0,1,1.16-1.44l1.75-.35c.48-.1.75.39.59,1.09m-.59-6-1.75,1.77c-.48.49-1,.47-1.16,0a2.12,2.12,0,0,1,.59-1.81L57.3,41c.49-.49,1-.47,1.16,0a2.07,2.07,0,0,1-.59,1.81"/><path class="cls-5" d="M50.34,53.47a3.93,3.93,0,0,1-.74,1.59,2.22,2.22,0,0,1-1.16.86.79.79,0,0,1-.92-.36,2,2,0,0,1-.13-1.38c.36-1.72,2.91-8.43,2.91-8.43a.57.57,0,0,1,.31-.35c.15,0,.19.1.19.23a78.38,78.38,0,0,1-.46,7.84"/></g></g></svg>
